HIERARCHY
ROOT Hips
{
  OFFSET -4.35178 90.3298 111.633
  CHANNELS 6 Xposition Yposition Zposition Zrotation Xrotation Yrotation
  JOINT LeftUpLeg
  {
    OFFSET 0.103456 1.85784 10.5485
    CHANNELS 6 Xposition Yposition Zposition Zrotation Xrotation Yrotation
    JOINT LeftLeg
    {
      OFFSET 43.5 -4.2e-05 0
      CHANNELS 6 Xposition Yposition Zposition Zrotation Xrotation Yrotation
      JOINT LeftFoot
      {
        OFFSET 42.3722 1.9e-05 0
        CHANNELS 6 Xposition Yposition Zposition Zrotation Xrotation Yrotation
        JOINT LeftToe
        {
          OFFSET 17.3 0 0
          CHANNELS 6 Xposition Yposition Zposition Zrotation Xrotation Yrotation
          End Site
          {
            OFFSET 0 0 0
          }
        }
      }
    }
  }
  JOINT RightUpLeg
  {
    OFFSET 0.103456 1.85782 -10.5485
    CHANNELS 6 Xposition Yposition Zposition Zrotation Xrotation Yrotation
    JOINT RightLeg
    {
      OFFSET 43.5 -2.7e-05 0
      CHANNELS 6 Xposition Yposition Zposition Zrotation Xrotation Yrotation
      JOINT RightFoot
      {
        OFFSET 42.3723 0 0
        CHANNELS 6 Xposition Yposition Zposition Zrotation Xrotation Yrotation
        JOINT RightToe
        {
          OFFSET 17.3 0 1.7e-05
          CHANNELS 6 Xposition Yposition Zposition Zrotation Xrotation Yrotation
          End Site
          {
            OFFSET 0 0 0
          }
        }
      }
    }
  }
  JOINT Spine
  {
    OFFSET 6.90197 -2.60373 0
    CHANNELS 6 Xposition Yposition Zposition Zrotation Xrotation Yrotation
    JOINT Spine1
    {
      OFFSET 12.5881 0 0
      CHANNELS 6 Xposition Yposition Zposition Zrotation Xrotation Yrotation
      JOINT Spine2
      {
        OFFSET 12.3432 -1.8e-05 0
        CHANNELS 6 Xposition Yposition Zposition Zrotation Xrotation Yrotation
        JOINT Neck
        {
          OFFSET 25.8329 2.3e-05 0
          CHANNELS 6 Xposition Yposition Zposition Zrotation Xrotation Yrotation
          JOINT Head
          {
            OFFSET 11.7666 0 0
            CHANNELS 6 Xposition Yposition Zposition Zrotation Xrotation Yrotation
            End Site
            {
              OFFSET 0 0 0
            }
          }
        }
        JOINT LeftShoulder
        {
          OFFSET 19.7459 -1.48035 6.0001
          CHANNELS 6 Xposition Yposition Zposition Zrotation Xrotation Yrotation
          JOINT LeftArm
          {
            OFFSET 11.2841 1.8e-05 -2e-05
            CHANNELS 6 Xposition Yposition Zposition Zrotation Xrotation Yrotation
            JOINT LeftForeArm
            {
              OFFSET 33 -1.3e-05 1.9e-05
              CHANNELS 6 Xposition Yposition Zposition Zrotation Xrotation Yrotation
              JOINT LeftHand
              {
                OFFSET 25.2 3.2e-05 1.1e-05
                CHANNELS 6 Xposition Yposition Zposition Zrotation Xrotation Yrotation
                End Site
                {
                  OFFSET 0 0 0
                }
              }
            }
          }
        }
        JOINT RightShoulder
        {
          OFFSET 19.7461 -1.48036 -6.00008
          CHANNELS 6 Xposition Yposition Zposition Zrotation Xrotation Yrotation
          JOINT RightArm
          {
            OFFSET 11.2841 0 0
            CHANNELS 6 Xposition Yposition Zposition Zrotation Xrotation Yrotation
            JOINT RightForeArm
            {
              OFFSET 33.0001 1.6e-05 0
              CHANNELS 6 Xposition Yposition Zposition Zrotation Xrotation Yrotation
              JOINT RightHand
              {
                OFFSET 25.1998 0.000123 0.000432
                CHANNELS 6 Xposition Yposition Zposition Zrotation Xrotation Yrotation
                End Site
                {
                  OFFSET 0 0 0
                }
              }
            }
          }
        }
      }
    }
  }
}
MOTION
Frames:	7
Frame Time:	0.0333333
-103.525 86.5709 159.306 -84.1194 -21.8982 -173.855 0.103456 1.85784 10.5485 -19.3912 17.0251 -176.436 43.5 -4.2e-05 1e-05 -36.0246 -8.52143 -4.91517 42.3722 1.9e-05 1.42109e-14 78.2764 -3.67718 13.6926 17.3 7.10543e-15 3e-06 21.4546 -1e-06 0.003093 0.103456 1.85782 -10.5485 17.8002 -21.013 170.817 43.5 -2.7e-05 4e-06 -22.3826 20.2382 8.08698 42.3723 0 1e-05 87.4868 23.4677 -18.1643 17.3 -6e-06 1.7e-05 21.4546 -1.9e-05 -0.003116 6.90197 -2.60373 -3e-06 9.63359 1.90366 -0.90566 12.5881 1e-05 8e-06 9.25515 3.73944 -2.12178 12.3432 -1.8e-05 -5e-06 8.89235 3.73814 -2.33224 25.8329 2.3e-05 7e-06 8.04815 -0.529515 -11.5169 11.7666 -8e-06 -6e-06 -20.6475 0.824059 6.97856 19.7459 -1.48035 6.0001 -165.432 11.2803 -82.9043 11.2841 1.8e-05 -2e-05 -2.29864 -8.36922 64.4643 33 -1.3e-05 1.9e-05 -106.298 -15.5086 -7.86084 25.2 3.2e-05 1.1e-05 -15.8169 34.6167 -4.35133 19.7461 -1.48036 -6.00008 176.515 4.81266 88.1536 11.2841 0 -1e-06 -42.058 -10.338 -57.6736 33.0001 1.6e-05 -1e-06 -103.804 0.22504 25.0038 25.1998 0.000123 0.000432 -17.3268 -13.7076 10.6575 
-101.774 86.2769 157.232 -84.4544 -23.9041 -173.7 0.103456 1.85784 10.5485 -18.8585 16.3114 -177.925 43.5 -4.2e-05 1e-05 -37.3158 -8.16826 -4.54124 42.3722 1.9e-05 1.42109e-14 79.329 -3.23446 13.3038 17.3 1.42109e-14 3e-06 21.4546 -1e-06 0.003093 0.103456 1.85782 -10.5485 17.6318 -20.4855 169.248 43.5 -2.7e-05 4e-06 -25.7113 20.0788 9.57692 42.3723 -1.42109e-14 1e-05 85.8559 24.5224 -18.6046 17.3 -6e-06 1.7e-05 21.4546 -1.9e-05 -0.003116 6.90197 -2.60373 -3e-06 9.38935 1.90358 -0.90109 12.5881 1e-05 8e-06 8.76614 3.73915 -2.10527 12.3432 -1.8e-05 -5e-06 8.40339 3.73144 -2.31599 25.8329 2.3e-05 7e-06 7.93491 -0.821595 -11.1454 11.7666 -8e-06 -6e-06 -19.789 0.272523 7.28702 19.7459 -1.48035 6.0001 -164.677 11.2109 -82.979 11.2841 1.8e-05 -2e-05 -1.43726 -8.02873 64.4454 33 -1.3e-05 1.9e-05 -105.85 -13.8454 -7.70954 25.2 3.2e-05 1.1e-05 -15.5221 35.2527 -4.2245 19.7461 -1.48036 -6.00008 177.236 4.67668 88.1402 11.2841 0 -1e-06 -41.8248 -10.5745 -57.701 33.0001 1.6e-05 -1e-06 -103.697 0.331664 25.0157 25.1998 0.000123 0.000432 -17.2433 -13.9107 10.7268 
-100.001 86.3531 154.878 -84.3318 -26.0252 -173.377 0.103456 1.85784 10.5485 -17.6664 16.015 -179.631 43.5 -4.2e-05 1e-05 -38.2643 -8.09388 -3.93081 42.3722 1.9e-05 0 79.4655 -2.22364 13.0581 17.3 0 3e-06 21.4546 -1e-06 0.003093 0.103456 1.85782 -10.5485 17.3887 -19.341 167.234 43.5 -2.7e-05 4e-06 -30.1227 19.7313 11.8081 42.3723 -7.10543e-15 1e-05 82.4576 24.7522 -19.5473 17.3 -6e-06 1.7e-05 21.4546 -1.9e-05 -0.003116 6.90197 -2.60373 -3e-06 9.34297 1.78993 -0.855641 12.5881 1e-05 8e-06 8.67122 3.5206 -1.99313 12.3432 -1.8e-05 -5e-06 8.31083 3.51884 -2.19073 25.8329 2.3e-05 7e-06 7.70648 -1.10321 -10.9078 11.7666 -8e-06 -6e-06 -19.9358 -0.343347 7.43011 19.7459 -1.48035 6.0001 -164.76 10.8956 -82.846 11.2841 1.8e-05 -2e-05 -1.65315 -7.33338 63.9884 33 -1.3e-05 1.9e-05 -105.277 -14.5201 -7.91057 25.2 3.2e-05 1.1e-05 -15.4958 36.1239 -4.94936 19.7461 -1.48036 -6.00008 177.64 4.70269 87.7696 11.2841 0 -1e-06 -41.3002 -11.0382 -57.0949 33.0001 1.6e-05 -1e-06 -102.988 0.431169 24.9405 25.1998 0.000123 0.000432 -16.9743 -14.2341 10.7707 
-98.2019 86.4292 152.351 -84.0165 -28.4815 -172.952 0.103456 1.85784 10.5485 -15.4539 16.0738 178.769 43.5 -4.2e-05 1e-05 -38.1785 -8.17928 -3.81544 42.3722 1.9e-05 0 80.8145 -0.797198 12.0178 17.3 0 3e-06 21.4546 -1e-06 0.003093 0.103456 1.85782 -10.5485 16.0064 -17.6019 164.678 43.5 -2.7e-05 4e-06 -36.9673 18.8434 14.2579 42.3723 -7.10543e-15 1e-05 77.3681 24.0434 -20.5171 17.3 -6e-06 1.7e-05 21.4546 -1.9e-05 -0.003116 6.90197 -2.60373 -3e-06 9.29385 1.62897 -0.726609 12.5881 1e-05 8e-06 8.56849 3.22247 -1.7062 12.3432 -1.8e-05 -5e-06 8.2111 3.23753 -1.88613 25.8329 2.3e-05 7e-06 7.25906 -1.5949 -10.5596 11.7666 -8e-06 -6e-06 -19.2934 -1.09145 7.23044 19.7459 -1.48035 6.0001 -165.024 10.4888 -82.6702 11.2841 1.8e-05 -2e-05 -1.83543 -7.17198 63.4685 33 -1.3e-05 1.9e-05 -105.235 -13.7775 -7.77714 25.2 3.2e-05 1.1e-05 -15.5441 36.8603 -5.26762 19.7461 -1.48036 -6.00008 178.342 4.86225 87.2277 11.2841 0 -1e-06 -40.1095 -11.5858 -56.0357 33.0001 1.6e-05 -1e-06 -101.961 0.602388 24.7998 25.1998 0.000123 0.000432 -16.4022 -14.7105 10.8561 
-96.5232 86.577 149.756 -83.7162 -31.0939 -172.43 0.103456 1.85784 10.5485 -12.7811 15.8535 176.711 43.5 -4.2e-05 1e-05 -37.1774 -8.53495 -3.23923 42.3722 1.9e-05 0 82.0583 0.586788 10.8703 17.3 0 3e-06 21.4546 -1e-06 0.003093 0.103456 1.85782 -10.5485 12.5077 -14.5384 162.336 43.5 -2.7e-05 4e-06 -46.6305 18.0212 15.258 42.3723 -7.10543e-15 1e-05 71.2311 20.9019 -22.3877 17.3 -6e-06 1.7e-05 21.4546 -1.9e-05 -0.003116 6.90197 -2.60373 -3e-06 9.26827 1.40948 -0.580055 12.5881 1e-05 8e-06 8.51333 2.81082 -1.37497 12.3432 -1.8e-05 -5e-06 8.16021 2.84636 -1.53031 25.8329 2.3e-05 7e-06 6.79654 -1.99291 -10.2031 11.7666 -8e-06 -6e-06 -18.7802 -1.76333 6.99067 19.7459 -1.48035 6.0001 -165.39 10.1554 -82.8829 11.2841 1.8e-05 -2e-05 -2.33346 -7.44538 63.345 33 -1.3e-05 1.9e-05 -105.66 -13.8259 -7.74547 25.2 3.2e-05 1.1e-05 -15.6484 37.0129 -5.37752 19.7461 -1.48036 -6.00008 179.255 4.84718 86.5668 11.2841 0 -1e-06 -38.3895 -11.898 -54.441 33.0001 1.6e-05 -1e-06 -100.962 0.671099 24.6263 25.1998 0.000123 0.000432 -15.6082 -15.0601 10.8428 
-94.9274 86.7673 147.272 -83.4544 -33.5398 -171.841 0.103456 1.85784 10.5485 -10.2055 14.886 174.324 43.5 -4.2e-05 1e-05 -35.9299 -8.93316 -1.95025 42.3722 1.9e-05 -1.42109e-14 82.727 1.12491 9.99536 17.3 1.42109e-14 3e-06 21.4546 -1e-06 0.003093 0.103456 1.85782 -10.5485 7.57366 -10.7608 160.767 43.5 -2.7e-05 4e-06 -56.7461 17.3378 14.6586 42.3723 0 1e-05 64.7658 13.1623 -24.3059 17.3 -6e-06 1.7e-05 21.4546 -1.9e-05 -0.003116 6.90197 -2.60373 -3e-06 9.31676 1.16953 -0.471987 12.5881 1e-05 8e-06 8.60878 2.35239 -1.11845 12.3432 -1.8e-05 -5e-06 8.26071 2.40619 -1.24607 25.8329 2.3e-05 7e-06 6.35325 -2.33887 -9.8532 11.7666 -8e-06 -6e-06 -19.1459 -2.4632 6.83991 19.7459 -1.48035 6.0001 -165.818 9.74121 -83.2923 11.2841 1.8e-05 -2e-05 -2.27389 -8.53935 63.3718 33 -1.3e-05 1.9e-05 -106.961 -12.976 -7.50035 25.2 3.2e-05 1.1e-05 -15.8215 36.5734 -4.84063 19.7461 -1.48036 -6.00008 -179.772 4.60467 85.8367 11.2841 -2.84217e-14 -1e-06 -36.4585 -11.7496 -52.6768 33.0001 1.6e-05 -1e-06 -100.282 0.599888 24.4886 25.1998 0.000123 0.000432 -15.0359 -15.4004 10.9312 
-93.3427 86.9903 144.961 -83.2961 -35.6023 -171.286 0.103456 1.85784 10.5485 -7.39448 13.9403 172.38 43.5 -4.2e-05 1e-05 -34.0018 -9.2716 -1.01945 42.3722 1.9e-05 0 83.3993 1.3916 8.82233 17.3 0 3e-06 21.4546 -1e-06 0.003093 0.103456 1.85782 -10.5485 2.31788 -6.27311 160.364 43.5 -2.7e-05 4e-06 -64.8346 13.9129 12.6434 42.3723 -7.10543e-15 1e-05 60.4813 2.52087 -21.3491 17.3 -6e-06 1.7e-05 21.4546 -1.9e-05 -0.003116 6.90197 -2.60373 -3e-06 9.37064 0.939847 -0.427905 12.5881 1e-05 8e-06 8.71734 1.90345 -0.991013 12.3432 -1.8e-05 -5e-06 8.3747 1.96765 -1.09121 25.8329 2.3e-05 7e-06 6.08766 -2.37195 -9.71126 11.7666 -8e-06 -6e-06 -19.917 -2.77959 6.93203 19.7459 -1.48035 6.0001 -166.354 9.38373 -84.0062 11.2841 1.8e-05 -2e-05 -2.68379 -9.38662 63.1848 33 -1.3e-05 1.9e-05 -108.32 -14.3392 -7.65414 25.2 3.2e-05 1.1e-05 -16.3818 35.918 -4.71802 19.7461 -1.48036 -6.00008 -178.876 4.24562 85.1446 11.2841 2.84217e-14 -1e-06 -34.7675 -11.2433 -51.1567 33.0001 1.6e-05 -1e-06 -99.7049 0.0478961 24.3444 25.1998 0.000123 0.000432 -14.3141 -15.622 10.9106 
